<mxfile host="65bd71144e">
    <diagram id="qWHRTFEshZ83oLirvoSb" name="Page-1">
        <mxGraphModel dx="1444" dy="885" grid="1" gridSize="10" guides="1" tooltips="1" connect="1" arrows="1" fold="1" page="1" pageScale="1" pageWidth="850" pageHeight="1100" math="0" shadow="0">
            <root>
                <mxCell id="0"/>
                <mxCell id="1" parent="0"/>
                <mxCell id="6" style="edgeStyle=none;html=1;exitX=0.5;exitY=1;exitDx=0;exitDy=0;entryX=0.5;entryY=0;entryDx=0;entryDy=0;" parent="1" source="2" target="5" edge="1">
                    <mxGeometry relative="1" as="geometry"/>
                </mxCell>
                <mxCell id="2" value="run with map file" style="rounded=0;whiteSpace=wrap;html=1;" parent="1" vertex="1">
                    <mxGeometry x="120" y="150" width="120" height="60" as="geometry"/>
                </mxCell>
                <mxCell id="4" style="edgeStyle=none;html=1;exitX=1;exitY=0.5;exitDx=0;exitDy=0;entryX=0;entryY=0.5;entryDx=0;entryDy=0;" parent="1" source="3" target="2" edge="1">
                    <mxGeometry relative="1" as="geometry"/>
                </mxCell>
                <mxCell id="3" value="&lt;div&gt;0&amp;nbsp; 0&amp;nbsp; 0&amp;nbsp; 0&amp;nbsp; 0&amp;nbsp; 0&amp;nbsp; 0&amp;nbsp; 0&amp;nbsp; 0&amp;nbsp; 0&amp;nbsp; 0&amp;nbsp; 0&amp;nbsp; 0&amp;nbsp; 0&amp;nbsp; 0&amp;nbsp; 0&amp;nbsp; 0&amp;nbsp; 0&amp;nbsp; 0&lt;/div&gt;&lt;div&gt;0&amp;nbsp; 0&amp;nbsp; 0&amp;nbsp; 0&amp;nbsp; 0&amp;nbsp; 0&amp;nbsp; 0&amp;nbsp; 0&amp;nbsp; 0&amp;nbsp; 0&amp;nbsp; 0&amp;nbsp; 0&amp;nbsp; 0&amp;nbsp; 0&amp;nbsp; 0&amp;nbsp; 0&amp;nbsp; 0&amp;nbsp; 0&amp;nbsp; 0&lt;/div&gt;&lt;div&gt;0&amp;nbsp; 0 10 10&amp;nbsp; 0&amp;nbsp; 0 10 10&amp;nbsp; 0&amp;nbsp; 0&amp;nbsp; 0 10 10 10 10 10&amp;nbsp; 0&amp;nbsp; 0&amp;nbsp; 0&lt;/div&gt;&lt;div&gt;0&amp;nbsp; 0 10 10&amp;nbsp; 0&amp;nbsp; 0 10 10&amp;nbsp; 0&amp;nbsp; 0&amp;nbsp; 0&amp;nbsp; 0&amp;nbsp; 0&amp;nbsp; 0&amp;nbsp; 0 10 10&amp;nbsp; 0&amp;nbsp; 0&lt;/div&gt;&lt;div&gt;0&amp;nbsp; 0 10 10&amp;nbsp; 0&amp;nbsp; 0 10 10&amp;nbsp; 0&amp;nbsp; 0&amp;nbsp; 0&amp;nbsp; 0&amp;nbsp; 0&amp;nbsp; 0&amp;nbsp; 0 10 10&amp;nbsp; 0&amp;nbsp; 0&lt;/div&gt;&lt;div&gt;0&amp;nbsp; 0 10 10 10 10 10 10&amp;nbsp; 0&amp;nbsp; 0&amp;nbsp; 0&amp;nbsp; 0 10 10 10 10&amp;nbsp; 0&amp;nbsp; 0&amp;nbsp; 0&lt;/div&gt;&lt;div&gt;0&amp;nbsp; 0&amp;nbsp; 0 10 10 10 10 10&amp;nbsp; 0&amp;nbsp; 0&amp;nbsp; 0 10 10&amp;nbsp; 0&amp;nbsp; 0&amp;nbsp; 0&amp;nbsp; 0&amp;nbsp; 0&amp;nbsp; 0&lt;/div&gt;&lt;div&gt;0&amp;nbsp; 0&amp;nbsp; 0&amp;nbsp; 0&amp;nbsp; 0&amp;nbsp; 0 10 10&amp;nbsp; 0&amp;nbsp; 0&amp;nbsp; 0 10 10&amp;nbsp; 0&amp;nbsp; 0&amp;nbsp; 0&amp;nbsp; 0&amp;nbsp; 0&amp;nbsp; 0&lt;/div&gt;&lt;div&gt;0&amp;nbsp; 0&amp;nbsp; 0&amp;nbsp; 0&amp;nbsp; 0&amp;nbsp; 0 10 10&amp;nbsp; 0&amp;nbsp; 0&amp;nbsp; 0 10 10 10 10 10 10&amp;nbsp; 0&amp;nbsp; 0&lt;/div&gt;&lt;div&gt;0&amp;nbsp; 0&amp;nbsp; 0&amp;nbsp; 0&amp;nbsp; 0&amp;nbsp; 0&amp;nbsp; 0&amp;nbsp; 0&amp;nbsp; 0&amp;nbsp; 0&amp;nbsp; 0&amp;nbsp; 0&amp;nbsp; 0&amp;nbsp; 0&amp;nbsp; 0&amp;nbsp; 0&amp;nbsp; 0&amp;nbsp; 0&amp;nbsp; 0&lt;/div&gt;&lt;div&gt;0&amp;nbsp; 0&amp;nbsp; 0&amp;nbsp; 0&amp;nbsp; 0&amp;nbsp; 0&amp;nbsp; 0&amp;nbsp; 0&amp;nbsp; 0&amp;nbsp; 0&amp;nbsp; 0&amp;nbsp; 0&amp;nbsp; 0&amp;nbsp; 0&amp;nbsp; 0&amp;nbsp; 0&amp;nbsp; 0&amp;nbsp; 0&amp;nbsp; 0&lt;/div&gt;" style="rounded=0;whiteSpace=wrap;html=1;" parent="1" vertex="1">
                    <mxGeometry x="-440" y="85" width="430" height="190" as="geometry"/>
                </mxCell>
                <mxCell id="8" style="edgeStyle=none;html=1;exitX=0.5;exitY=1;exitDx=0;exitDy=0;entryX=0.5;entryY=0;entryDx=0;entryDy=0;" parent="1" source="5" target="7" edge="1">
                    <mxGeometry relative="1" as="geometry"/>
                </mxCell>
                <mxCell id="5" value="check map is valid&lt;br&gt;and parse into point matrix" style="rounded=0;whiteSpace=wrap;html=1;" parent="1" vertex="1">
                    <mxGeometry x="120" y="260" width="120" height="60" as="geometry"/>
                </mxCell>
                <mxCell id="10" style="edgeStyle=none;html=1;exitX=0.5;exitY=1;exitDx=0;exitDy=0;entryX=0.5;entryY=0;entryDx=0;entryDy=0;" parent="1" source="7" target="9" edge="1">
                    <mxGeometry relative="1" as="geometry"/>
                </mxCell>
                <mxCell id="7" value="Create line array for drawing squares" style="rounded=0;whiteSpace=wrap;html=1;" parent="1" vertex="1">
                    <mxGeometry x="120" y="360" width="120" height="60" as="geometry"/>
                </mxCell>
                <mxCell id="12" style="edgeStyle=none;html=1;exitX=0.5;exitY=1;exitDx=0;exitDy=0;entryX=0.5;entryY=0;entryDx=0;entryDy=0;" parent="1" source="9" target="11" edge="1">
                    <mxGeometry relative="1" as="geometry"/>
                </mxCell>
                <mxCell id="9" value="initialise mlx instance" style="rounded=0;whiteSpace=wrap;html=1;" parent="1" vertex="1">
                    <mxGeometry x="120" y="470" width="120" height="60" as="geometry"/>
                </mxCell>
                <mxCell id="20" style="edgeStyle=orthogonalEdgeStyle;html=1;exitX=1;exitY=0.5;exitDx=0;exitDy=0;entryX=0.5;entryY=0;entryDx=0;entryDy=0;" parent="1" source="11" target="13" edge="1">
                    <mxGeometry relative="1" as="geometry"/>
                </mxCell>
                <mxCell id="22" style="edgeStyle=orthogonalEdgeStyle;html=1;exitX=0.5;exitY=1;exitDx=0;exitDy=0;entryX=0.5;entryY=0;entryDx=0;entryDy=0;" parent="1" source="11" target="21" edge="1">
                    <mxGeometry relative="1" as="geometry"/>
                </mxCell>
                <mxCell id="11" value="Create projection pipeline" style="rounded=0;whiteSpace=wrap;html=1;" parent="1" vertex="1">
                    <mxGeometry x="120" y="570" width="120" height="60" as="geometry"/>
                </mxCell>
                <mxCell id="13" value="Isometric projection&amp;nbsp;" style="rounded=0;whiteSpace=wrap;html=1;align=left;verticalAlign=top;container=1;dropTarget=1;collapsible=0;" parent="1" vertex="1">
                    <mxGeometry x="400" y="630" width="220" height="390" as="geometry">
                        <mxRectangle x="380" y="450" width="150" height="30" as="alternateBounds"/>
                    </mxGeometry>
                </mxCell>
                <mxCell id="14" value="Rotate X axis by 45 degrees" style="rounded=0;whiteSpace=wrap;html=1;" parent="13" vertex="1">
                    <mxGeometry x="50" y="49.860000000000014" width="120" height="55.43" as="geometry"/>
                </mxCell>
                <mxCell id="15" value="Rotate y axis by asin(cos(30))" style="rounded=0;whiteSpace=wrap;html=1;" parent="13" vertex="1">
                    <mxGeometry x="50" y="125.29000000000008" width="120" height="55.14" as="geometry"/>
                </mxCell>
                <mxCell id="17" style="edgeStyle=none;html=1;exitX=0.5;exitY=1;exitDx=0;exitDy=0;entryX=0.5;entryY=0;entryDx=0;entryDy=0;" parent="13" source="14" target="15" edge="1">
                    <mxGeometry relative="1" as="geometry"/>
                </mxCell>
                <mxCell id="16" value="Project by truncating z" style="rounded=0;whiteSpace=wrap;html=1;" parent="13" vertex="1">
                    <mxGeometry x="50" y="205.29000000000008" width="120" height="54.86" as="geometry"/>
                </mxCell>
                <mxCell id="18" style="edgeStyle=none;html=1;exitX=0.5;exitY=1;exitDx=0;exitDy=0;entryX=0.5;entryY=0;entryDx=0;entryDy=0;" parent="13" source="15" target="16" edge="1">
                    <mxGeometry relative="1" as="geometry"/>
                </mxCell>
                <mxCell id="19" value="Scale / Translate as needed" style="rounded=0;whiteSpace=wrap;html=1;" parent="13" vertex="1">
                    <mxGeometry x="50" y="285.2900000000001" width="120" height="54.86" as="geometry"/>
                </mxCell>
                <mxCell id="24" style="edgeStyle=orthogonalEdgeStyle;html=1;exitX=0.5;exitY=1;exitDx=0;exitDy=0;entryX=0.5;entryY=0;entryDx=0;entryDy=0;" parent="1" source="21" target="23" edge="1">
                    <mxGeometry relative="1" as="geometry"/>
                </mxCell>
                <mxCell id="21" value="Calculate projection by passing point matrix through pipeline" style="rounded=0;whiteSpace=wrap;html=1;" parent="1" vertex="1">
                    <mxGeometry x="120" y="670" width="120" height="60" as="geometry"/>
                </mxCell>
                <mxCell id="26" style="edgeStyle=orthogonalEdgeStyle;html=1;exitX=0.5;exitY=1;exitDx=0;exitDy=0;entryX=0.5;entryY=0;entryDx=0;entryDy=0;" parent="1" source="23" target="25" edge="1">
                    <mxGeometry relative="1" as="geometry"/>
                </mxCell>
                <mxCell id="23" value="Draw to pre-canvas" style="rounded=0;whiteSpace=wrap;html=1;" parent="1" vertex="1">
                    <mxGeometry x="120" y="770" width="120" height="60" as="geometry"/>
                </mxCell>
                <mxCell id="28" style="edgeStyle=orthogonalEdgeStyle;html=1;exitX=0.5;exitY=1;exitDx=0;exitDy=0;entryX=0.5;entryY=0;entryDx=0;entryDy=0;" parent="1" source="25" target="27" edge="1">
                    <mxGeometry relative="1" as="geometry"/>
                </mxCell>
                <mxCell id="25" value="swap main and pre canvas when drawing is done" style="rounded=0;whiteSpace=wrap;html=1;" parent="1" vertex="1">
                    <mxGeometry x="120" y="870" width="120" height="60" as="geometry"/>
                </mxCell>
                <mxCell id="41" style="edgeStyle=orthogonalEdgeStyle;html=1;exitX=0;exitY=0.25;exitDx=0;exitDy=0;entryX=1;entryY=0.25;entryDx=0;entryDy=0;" parent="1" source="27" target="30" edge="1">
                    <mxGeometry relative="1" as="geometry"/>
                </mxCell>
                <mxCell id="71" style="edgeStyle=orthogonalEdgeStyle;html=1;exitX=0.5;exitY=1;exitDx=0;exitDy=0;entryX=0.25;entryY=0;entryDx=0;entryDy=0;" parent="1" source="27" target="42" edge="1">
                    <mxGeometry relative="1" as="geometry"/>
                </mxCell>
                <mxCell id="27" value="mainloop" style="rounded=0;whiteSpace=wrap;html=1;" parent="1" vertex="1">
                    <mxGeometry x="120" y="970" width="120" height="60" as="geometry"/>
                </mxCell>
                <mxCell id="29" style="edgeStyle=orthogonalEdgeStyle;html=1;exitX=0.25;exitY=1;exitDx=0;exitDy=0;entryX=0;entryY=0.75;entryDx=0;entryDy=0;" parent="1" source="27" target="27" edge="1">
                    <mxGeometry relative="1" as="geometry">
                        <Array as="points">
                            <mxPoint x="110" y="1040"/>
                        </Array>
                    </mxGeometry>
                </mxCell>
                <mxCell id="76" style="edgeStyle=orthogonalEdgeStyle;html=1;exitX=0.5;exitY=0;exitDx=0;exitDy=0;entryX=0.5;entryY=1;entryDx=0;entryDy=0;" parent="1" source="30" target="74" edge="1">
                    <mxGeometry relative="1" as="geometry"/>
                </mxCell>
                <mxCell id="30" value="Key hooks" style="rounded=0;whiteSpace=wrap;html=1;align=left;verticalAlign=top;dropTarget=1;collapsible=0;container=1;" parent="1" vertex="1">
                    <mxGeometry x="-530" y="1120" width="270" height="330" as="geometry"/>
                </mxCell>
                <mxCell id="31" value="ESC to exit app" style="rounded=0;whiteSpace=wrap;html=1;" parent="30" vertex="1">
                    <mxGeometry x="10" y="40" width="120" height="50" as="geometry"/>
                </mxCell>
                <mxCell id="32" value="Braces to scale up and down" style="rounded=0;whiteSpace=wrap;html=1;" parent="30" vertex="1">
                    <mxGeometry x="10" y="100" width="120" height="50" as="geometry"/>
                </mxCell>
                <mxCell id="34" value="w,a,s,d to 2d translate on the screen" style="rounded=0;whiteSpace=wrap;html=1;" parent="30" vertex="1">
                    <mxGeometry x="10" y="160" width="120" height="50" as="geometry"/>
                </mxCell>
                <mxCell id="35" value="Needs re-project?" style="rounded=1;whiteSpace=wrap;html=1;" parent="30" vertex="1">
                    <mxGeometry x="140" y="100" width="120" height="50" as="geometry"/>
                </mxCell>
                <mxCell id="36" value="needs 2D translate" style="rounded=1;whiteSpace=wrap;html=1;" parent="30" vertex="1">
                    <mxGeometry x="140" y="160" width="120" height="50" as="geometry"/>
                </mxCell>
                <mxCell id="38" value="Mouse to rotate in 3D?" style="rounded=0;whiteSpace=wrap;html=1;" parent="30" vertex="1">
                    <mxGeometry x="10" y="220" width="120" height="50" as="geometry"/>
                </mxCell>
                <mxCell id="39" value="needs re-project" style="rounded=1;whiteSpace=wrap;html=1;" parent="30" vertex="1">
                    <mxGeometry x="140" y="220" width="120" height="50" as="geometry"/>
                </mxCell>
                <mxCell id="42" value="Projection loop" style="rounded=0;whiteSpace=wrap;html=1;dropTarget=1;container=1;collapsible=0;align=left;verticalAlign=top;" parent="1" vertex="1">
                    <mxGeometry x="20" y="1160" width="510" height="530" as="geometry"/>
                </mxCell>
                <mxCell id="47" value="if needs re-project" style="rounded=0;whiteSpace=wrap;html=1;" parent="42" vertex="1">
                    <mxGeometry x="15" y="35" width="120" height="60" as="geometry"/>
                </mxCell>
                <mxCell id="48" value="loop through matrix using projection index" style="rounded=0;whiteSpace=wrap;html=1;" parent="42" vertex="1">
                    <mxGeometry x="195" y="35" width="120" height="60" as="geometry"/>
                </mxCell>
                <mxCell id="61" style="edgeStyle=orthogonalEdgeStyle;html=1;exitX=1;exitY=0.5;exitDx=0;exitDy=0;entryX=0;entryY=0.5;entryDx=0;entryDy=0;" parent="42" source="47" target="48" edge="1">
                    <mxGeometry relative="1" as="geometry"/>
                </mxCell>
                <mxCell id="51" style="edgeStyle=orthogonalEdgeStyle;html=1;exitX=0;exitY=0.75;exitDx=0;exitDy=0;entryX=1;entryY=0.75;entryDx=0;entryDy=0;" parent="42" source="49" target="48" edge="1">
                    <mxGeometry relative="1" as="geometry"/>
                </mxCell>
                <mxCell id="49" value="project point" style="rounded=0;whiteSpace=wrap;html=1;" parent="42" vertex="1">
                    <mxGeometry x="375" y="35" width="120" height="60" as="geometry"/>
                </mxCell>
                <mxCell id="50" style="edgeStyle=orthogonalEdgeStyle;html=1;exitX=1;exitY=0.25;exitDx=0;exitDy=0;entryX=0;entryY=0.25;entryDx=0;entryDy=0;" parent="42" source="48" target="49" edge="1">
                    <mxGeometry relative="1" as="geometry"/>
                </mxCell>
                <mxCell id="52" value="set needs re-project to 0.&lt;br&gt;set needs re-translate to 1" style="rounded=0;whiteSpace=wrap;html=1;" parent="42" vertex="1">
                    <mxGeometry x="335" y="115" width="160" height="60" as="geometry"/>
                </mxCell>
                <mxCell id="53" style="edgeStyle=orthogonalEdgeStyle;html=1;exitX=0.75;exitY=1;exitDx=0;exitDy=0;entryX=0;entryY=0.25;entryDx=0;entryDy=0;" parent="42" source="48" target="52" edge="1">
                    <mxGeometry relative="1" as="geometry"/>
                </mxCell>
                <mxCell id="54" value="else if needs re-translate" style="rounded=0;whiteSpace=wrap;html=1;" parent="42" vertex="1">
                    <mxGeometry x="15" y="195" width="120" height="60" as="geometry"/>
                </mxCell>
                <mxCell id="55" value="loop through matrix&amp;nbsp;&lt;br&gt;using translation index?" style="rounded=0;whiteSpace=wrap;html=1;" parent="42" vertex="1">
                    <mxGeometry x="195" y="195" width="120" height="60" as="geometry"/>
                </mxCell>
                <mxCell id="62" style="edgeStyle=orthogonalEdgeStyle;html=1;exitX=1;exitY=0.5;exitDx=0;exitDy=0;entryX=0;entryY=0.5;entryDx=0;entryDy=0;" parent="42" source="54" target="55" edge="1">
                    <mxGeometry relative="1" as="geometry"/>
                </mxCell>
                <mxCell id="58" style="edgeStyle=orthogonalEdgeStyle;html=1;exitX=0;exitY=0.75;exitDx=0;exitDy=0;entryX=1;entryY=0.75;entryDx=0;entryDy=0;" parent="42" source="56" target="55" edge="1">
                    <mxGeometry relative="1" as="geometry"/>
                </mxCell>
                <mxCell id="56" value="translate 2d point" style="rounded=0;whiteSpace=wrap;html=1;" parent="42" vertex="1">
                    <mxGeometry x="375" y="195" width="120" height="60" as="geometry"/>
                </mxCell>
                <mxCell id="57" style="edgeStyle=orthogonalEdgeStyle;html=1;exitX=1;exitY=0.25;exitDx=0;exitDy=0;entryX=0;entryY=0.25;entryDx=0;entryDy=0;" parent="42" source="55" target="56" edge="1">
                    <mxGeometry relative="1" as="geometry"/>
                </mxCell>
                <mxCell id="59" value="set needs re-translate to 0.&lt;br&gt;set needs re-draw to 1" style="rounded=0;whiteSpace=wrap;html=1;" parent="42" vertex="1">
                    <mxGeometry x="325" y="275" width="170" height="60" as="geometry"/>
                </mxCell>
                <mxCell id="60" style="edgeStyle=orthogonalEdgeStyle;html=1;exitX=0.75;exitY=1;exitDx=0;exitDy=0;entryX=0;entryY=0.25;entryDx=0;entryDy=0;" parent="42" source="55" target="59" edge="1">
                    <mxGeometry relative="1" as="geometry"/>
                </mxCell>
                <mxCell id="63" value="else if needs re-draw" style="rounded=0;whiteSpace=wrap;html=1;" parent="42" vertex="1">
                    <mxGeometry x="15" y="355" width="120" height="60" as="geometry"/>
                </mxCell>
                <mxCell id="64" value="loop through lines&lt;br&gt;using draw_index&lt;br&gt;" style="rounded=0;whiteSpace=wrap;html=1;" parent="42" vertex="1">
                    <mxGeometry x="195" y="355" width="120" height="60" as="geometry"/>
                </mxCell>
                <mxCell id="66" style="edgeStyle=orthogonalEdgeStyle;html=1;exitX=1;exitY=0.5;exitDx=0;exitDy=0;entryX=0;entryY=0.5;entryDx=0;entryDy=0;" parent="42" source="63" target="64" edge="1">
                    <mxGeometry relative="1" as="geometry"/>
                </mxCell>
                <mxCell id="68" style="edgeStyle=orthogonalEdgeStyle;html=1;exitX=0;exitY=0.75;exitDx=0;exitDy=0;entryX=1;entryY=0.75;entryDx=0;entryDy=0;" parent="42" source="65" target="64" edge="1">
                    <mxGeometry relative="1" as="geometry"/>
                </mxCell>
                <mxCell id="65" value="draw line to screen" style="rounded=0;whiteSpace=wrap;html=1;" parent="42" vertex="1">
                    <mxGeometry x="375" y="355" width="120" height="60" as="geometry"/>
                </mxCell>
                <mxCell id="67" style="edgeStyle=orthogonalEdgeStyle;html=1;exitX=1;exitY=0.25;exitDx=0;exitDy=0;entryX=0;entryY=0.25;entryDx=0;entryDy=0;" parent="42" source="64" target="65" edge="1">
                    <mxGeometry relative="1" as="geometry"/>
                </mxCell>
                <mxCell id="69" value="set needs re_draw to 0" style="rounded=0;whiteSpace=wrap;html=1;" parent="42" vertex="1">
                    <mxGeometry x="335" y="435" width="160" height="60" as="geometry"/>
                </mxCell>
                <mxCell id="70" style="edgeStyle=orthogonalEdgeStyle;html=1;exitX=0.75;exitY=1;exitDx=0;exitDy=0;entryX=0;entryY=0.25;entryDx=0;entryDy=0;" parent="42" source="64" target="69" edge="1">
                    <mxGeometry relative="1" as="geometry"/>
                </mxCell>
                <mxCell id="43" value="If multiple re-projections&lt;br&gt;are needed how do we deal&lt;br&gt;with that?&lt;br&gt;&lt;br&gt;Projection index?" style="ellipse;shape=cloud;whiteSpace=wrap;html=1;" parent="1" vertex="1">
                    <mxGeometry x="-240" y="1370" width="230" height="160" as="geometry"/>
                </mxCell>
                <mxCell id="44" value="To trigger re-projection:&lt;br&gt;&lt;ul&gt;&lt;li&gt;set projection index to 0,0&lt;/li&gt;&lt;li&gt;set needs-re-project to 1 (other steps can be set to 1 too)&lt;/li&gt;&lt;/ul&gt;&lt;div style=&quot;left: 212px; bottom: 0px; right: 240px; height: 36px;&quot; class=&quot;geTabContainer geTabItem&quot;&gt;&lt;div style=&quot;width: 30px;&quot; title=&quot;Pages&quot; class=&quot;geTab geControlTab&quot;&gt;&lt;div style=&quot;background-image: url(&amp;quot;data:image/svg+xml;base64,PHN2ZyB4bWxucz0iaHR0cDovL3d3dy53My5vcmcvMjAwMC9zdmciIGhlaWdodD0iMThweCIgdmlld0JveD0iMCAwIDI0IDI0IiB3aWR0aD0iMThweCIgZmlsbD0iIzAwMDAwMCI+PHBhdGggZD0iTTAgMGgyNHYyNEgwVjB6IiBmaWxsPSJub25lIi8+PHBhdGggZD0iTTEyIDhjMS4xIDAgMi0uOSAyLTJzLS45LTItMi0yLTIgLjktMiAyIC45IDIgMiAyem0wIDJjLTEuMSAwLTIgLjktMiAycy45IDIgMiAyIDItLjkgMi0yLS45LTItMi0yem0wIDZjLTEuMSAwLTIgLjktMiAycy45IDIgMiAyIDItLjkgMi0yLS45LTItMi0yeiIvPjwvc3ZnPg==&amp;quot;); background-repeat: no-repeat; background-position: center center; background-size: 24px; position: relative; opacity: 0.5; width: 100%; height: 100%;&quot; class=&quot;geAdaptiveAsset&quot;&gt;&lt;/div&gt;&lt;/div&gt;&lt;div class=&quot;geTabScroller&quot;&gt;&lt;div draggable=&quot;true&quot; title=&quot;Page-1 (qWHRTFEshZ83oLirvoSb) [1]&quot; class=&quot;geTab gePageTab geActivePage&quot;&gt;&lt;span&gt;Page-1&lt;/span&gt;&lt;div style=&quot;background-image: url(&amp;quot;data:image/svg+xml;base64,PCFET0NUWVBFIHN2ZyBQVUJMSUMgIi0vL1czQy8vRFREIFNWRyAxLjEvL0VOIiAiaHR0cDovL3d3dy53My5vcmcvR3JhcGhpY3MvU1ZHLzEuMS9EVEQvc3ZnMTEuZHRkIj48c3ZnIHhtbG5zPSJodHRwOi8vd3d3LnczLm9yZy8yMDAwL3N2ZyIgeG1sbnM6eGxpbms9Imh0dHA6Ly93d3cudzMub3JnLzE5OTkveGxpbmsiIHdpZHRoPSIxNHB4IiBoZWlnaHQ9IjEwcHgiIHZlcnNpb249IjEuMSI+PHBhdGggZD0iTSAzIDcgTCA3IDMgTCAxMSA3IiBzdHJva2U9IiM3MDcwNzAiIHN0cm9rZS13aWR0aD0iMiIgZmlsbD0ibm9uZSIvPjwvc3ZnPg==&amp;quot;); background-position: center center; background-repeat: no-repeat; background-size: 10px;&quot; class=&quot;geTabMenuButton&quot;&gt;&lt;/div&gt;&lt;/div&gt;&lt;/div&gt;&lt;div style=&quot;width: 30px;&quot; title=&quot;Insert Page&quot; class=&quot;geTab geControlTab&quot;&gt;&lt;div style=&quot;background-image: url(&amp;quot;data:image/svg+xml;base64,PHN2ZyB4bWxucz0iaHR0cDovL3d3dy53My5vcmcvMjAwMC9zdmciIHdpZHRoPSIyNCIgaGVpZ2h0PSIyNCIgdmlld0JveD0iMCAwIDI0IDI0Ij48cGF0aCBkPSJNMTkgMTNoLTZ2NmgtMnYtNkg1di0yaDZWNWgydjZoNnYyeiIvPjwvc3ZnPg==&amp;quot;); background-repeat: no-repeat; background-position: center center; background-size: 24px; position: relative; opacity: 0.5; width: 100%; height: 100%;&quot; class=&quot;geAdaptiveAsset&quot;&gt;&lt;/div&gt;&lt;/div&gt;&lt;div style=&quot;width: 30px; opacity: 0; transition: 0.2s linear;&quot; class=&quot;geTab geControlTab&quot;&gt;&lt;div style=&quot;background-image: url(&amp;quot;data:image/svg+xml;base64,PHN2ZyB4bWxucz0iaHR0cDovL3d3dy53My5vcmcvMjAwMC9zdmciIGhlaWdodD0iNDgiIHdpZHRoPSI0OCI+PHBhdGggZD0iTTI4LjA1IDM1LjMgMTYuNyAyMy45NSAyOC4wNSAxMi42bDEuNiAxLjY1LTkuNyA5LjcgOS43IDkuNzVaIi8+PC9zdmc+&amp;quot;); background-repeat: no-repeat; background-position: center center; background-size: 24px; position: relative; opacity: 0.5; width: 100%; height: 100%;&quot; class=&quot;geAdaptiveAsset&quot;&gt;&lt;/div&gt;&lt;/div&gt;&lt;div style=&quot;width: 30px; opacity: 0; transition: 0.2s linear;&quot; class=&quot;geTab geControlTab&quot;&gt;&lt;div style=&quot;background-image: url(&amp;quot;data:image/svg+xml;base64,PHN2ZyB4bWxucz0iaHR0cDovL3d3dy53My5vcmcvMjAwMC9zdmciIGhlaWdodD0iNDgiIHdpZHRoPSI0OCI+PHBhdGggZD0ibTE4Ljc1IDM1LjMtMS42LTEuNiA5LjctOS43NS05LjctOS43IDEuNi0xLjY1TDMwLjEgMjMuOTVaIi8+PC9zdmc+&amp;quot;); background-repeat: no-repeat; background-position: center center; background-size: 24px; position: relative; opacity: 0.5; width: 100%; height: 100%;&quot; class=&quot;geAdaptiveAsset&quot;&gt;&lt;/div&gt;&lt;/div&gt;&lt;/div&gt;&lt;div style=&quot;left: 0px; right: 0px; top: 30px; height: 38px;&quot; class=&quot;geToolbarContainer&quot;&gt;&lt;div class=&quot;geToolbar&quot;&gt;&lt;a style=&quot;position: relative; white-space: nowrap; overflow: hidden; padding-right: 18px;&quot; title=&quot;Style&quot; class=&quot;geLabel&quot;&gt;Style&lt;img style=&quot;position: absolute; right: 1px; top: 5px;&quot; src=&quot;data:image/gif;base64,R0lGODlhDQANAIABAHt7e////yH/C1hNUCBEYXRhWE1QPD94cGFja2V0IGJlZ2luPSLvu78iIGlkPSJXNU0wTXBDZWhpSHpyZVN6TlRjemtjOWQiPz4gPHg6eG1wbWV0YSB4bWxuczp4PSJhZG9iZTpuczptZXRhLyIgeDp4bXB0az0iQWRvYmUgWE1QIENvcmUgNS4wLWMwNjAgNjEuMTM0Nzc3LCAyMDEwLzAyLzEyLTE3OjMyOjAwICAgICAgICAiPiA8cmRmOlJERiB4bWxuczpyZGY9Imh0dHA6Ly93d3cudzMub3JnLzE5OTkvMDIvMjItcmRmLXN5bnRheC1ucyMiPiA8cmRmOkRlc2NyaXB0aW9uIHJkZjphYm91dD0iIiB4bWxuczp4bXA9Imh0dHA6Ly9ucy5hZG9iZS5jb20veGFwLzEuMC8iIHhtbG5zOnhtcE1NPSJodHRwOi8vbnMuYWRvYmUuY29tL3hhcC8xLjAvbW0vIiB4bWxuczpzdFJlZj0iaHR0cDovL25zLmFkb2JlLmNvbS94YXAvMS4wL3NUeXBlL1Jlc291cmNlUmVmIyIgeG1wOkNyZWF0b3JUb29sPSJBZG9iZSBQaG90b3Nob3AgQ1M1IE1hY2ludG9zaCIgeG1wTU06SW5zdGFuY2VJRD0ieG1wLmlpZDpCREM1NkJFMjE0NEMxMUU1ODk1Q0M5MjQ0MTA4QjNDMSIgeG1wTU06RG9jdW1lbnRJRD0ieG1wLmRpZDpCREM1NkJFMzE0NEMxMUU1ODk1Q0M5MjQ0MTA4QjNDMSI+IDx4bXBNTTpEZXJpdmVkRnJvbSBzdFJlZjppbnN0YW5jZUlEPSJ4bXAuaWlkOkQzOUMzMjZCMTQ0QjExRTU4OTVDQzkyNDQxMDhCM0MxIiBzdFJlZjpkb2N1bWVudElEPSJ4bXAuZGlkOkQzOUMzMjZDMTQ0QjExRTU4OTVDQzkyNDQxMDhCM0MxIi8+IDwvcmRmOkRlc2NyaXB0aW9uPiA8L3JkZjpSREY+IDwveDp4bXBtZXRhPiA8P3hwYWNrZXQgZW5kPSJyIj8+Af/+/fz7+vn49/b19PPy8fDv7u3s6+rp6Ofm5eTj4uHg397d3Nva2djX1tXU09LR0M/OzczLysnIx8bFxMPCwcC/vr28u7q5uLe2tbSzsrGwr66trKuqqainpqWko6KhoJ+enZybmpmYl5aVlJOSkZCPjo2Mi4qJiIeGhYSDgoGAf359fHt6eXh3dnV0c3JxcG9ubWxramloZ2ZlZGNiYWBfXl1cW1pZWFdWVVRTUlFQT05NTEtKSUhHRkVEQ0JBQD8+PTw7Ojk4NzY1NDMyMTAvLi0sKyopKCcmJSQjIiEgHx4dHBsaGRgXFhUUExIREA8ODQwLCgkIBwYFBAMCAQAAIfkEAQAAAQAsAAAAAA0ADQAAAhGMj6nL3QAjVHIu6azbvPtWAAA7&quot; valign=&quot;middle&quot; border=&quot;0&quot;&gt;&lt;/a&gt;&lt;div class=&quot;geSeparator&quot;&gt;&lt;/div&gt;&lt;a style=&quot;position: relative; white-space: nowrap; overflow: hidden; width: 68px; padding-right: 18px;&quot; title=&quot;Font Family&quot; class=&quot;geLabel&quot;&gt;&lt;div style=&quot;display: inline-block; overflow: hidden; text-overflow: ellipsis; max-width: 66px;&quot;&gt;Helvetica&lt;/div&gt;&lt;img style=&quot;position: absolute; right: 4px; top: 6px;&quot; src=&quot;data:image/gif;base64,R0lGODlhDQANAIABAHt7e////yH/C1hNUCBEYXRhWE1QPD94cGFja2V0IGJlZ2luPSLvu78iIGlkPSJXNU0wTXBDZWhpSHpyZVN6TlRjemtjOWQiPz4gPHg6eG1wbWV0YSB4bWxuczp4PSJhZG9iZTpuczptZXRhLyIgeDp4bXB0az0iQWRvYmUgWE1QIENvcmUgNS4wLWMwNjAgNjEuMTM0Nzc3LCAyMDEwLzAyLzEyLTE3OjMyOjAwICAgICAgICAiPiA8cmRmOlJERiB4bWxuczpyZGY9Imh0dHA6Ly93d3cudzMub3JnLzE5OTkvMDIvMjItcmRmLXN5bnRheC1ucyMiPiA8cmRmOkRlc2NyaXB0aW9uIHJkZjphYm91dD0iIiB4bWxuczp4bXA9Imh0dHA6Ly9ucy5hZG9iZS5jb20veGFwLzEuMC8iIHhtbG5zOnhtcE1NPSJodHRwOi8vbnMuYWRvYmUuY29tL3hhcC8xLjAvbW0vIiB4bWxuczpzdFJlZj0iaHR0cDovL25zLmFkb2JlLmNvbS94YXAvMS4wL3NUeXBlL1Jlc291cmNlUmVmIyIgeG1wOkNyZWF0b3JUb29sPSJBZG9iZSBQaG90b3Nob3AgQ1M1IE1hY2ludG9zaCIgeG1wTU06SW5zdGFuY2VJRD0ieG1wLmlpZDpCREM1NkJFMjE0NEMxMUU1ODk1Q0M5MjQ0MTA4QjNDMSIgeG1wTU06RG9jdW1lbnRJRD0ieG1wLmRpZDpCREM1NkJFMzE0NEMxMUU1ODk1Q0M5MjQ0MTA4QjNDMSI+IDx4bXBNTTpEZXJpdmVkRnJvbSBzdFJlZjppbnN0YW5jZUlEPSJ4bXAuaWlkOkQzOUMzMjZCMTQ0QjExRTU4OTVDQzkyNDQxMDhCM0MxIiBzdFJlZjpkb2N1bWVudElEPSJ4bXAuZGlkOkQzOUMzMjZDMTQ0QjExRTU4OTVDQzkyNDQxMDhCM0MxIi8+IDwvcmRmOkRlc2NyaXB0aW9uPiA8L3JkZjpSREY+IDwveDp4bXBtZXRhPiA8P3hwYWNrZXQgZW5kPSJyIj8+Af/+/fz7+vn49/b19PPy8fDv7u3s6+rp6Ofm5eTj4uHg397d3Nva2djX1tXU09LR0M/OzczLysnIx8bFxMPCwcC/vr28u7q5uLe2tbSzsrGwr66trKuqqainpqWko6KhoJ+enZybmpmYl5aVlJOSkZCPjo2Mi4qJiIeGhYSDgoGAf359fHt6eXh3dnV0c3JxcG9ubWxramloZ2ZlZGNiYWBfXl1cW1pZWFdWVVRTUlFQT05NTEtKSUhHRkVEQ0JBQD8+PTw7Ojk4NzY1NDMyMTAvLi0sKyopKCcmJSQjIiEgHx4dHBsaGRgXFhUUExIREA8ODQwLCgkIBwYFBAMCAQAAIfkEAQAAAQAsAAAAAA0ADQAAAhGMj6nL3QAjVHIu6azbvPtWAAA7&quot; valign=&quot;middle&quot; border=&quot;0&quot;&gt;&lt;/a&gt;&lt;div class=&quot;geSeparator&quot;&gt;&lt;/div&gt;&lt;a style=&quot;position: relative; white-space: nowrap; overflow: hidden; width: 24px; padding-right: 18px;&quot; title=&quot;Font Size&quot; class=&quot;geLabel&quot;&gt;&lt;div style=&quot;display: inline-block; overflow: hidden; text-overflow: ellipsis; max-width: 24px;&quot;&gt;12&lt;/div&gt;&lt;img style=&quot;position: absolute; right: 4px; top: 6px;&quot; src=&quot;data:image/gif;base64,R0lGODlhDQANAIABAHt7e////yH/C1hNUCBEYXRhWE1QPD94cGFja2V0IGJlZ2luPSLvu78iIGlkPSJXNU0wTXBDZWhpSHpyZVN6TlRjemtjOWQiPz4gPHg6eG1wbWV0YSB4bWxuczp4PSJhZG9iZTpuczptZXRhLyIgeDp4bXB0az0iQWRvYmUgWE1QIENvcmUgNS4wLWMwNjAgNjEuMTM0Nzc3LCAyMDEwLzAyLzEyLTE3OjMyOjAwICAgICAgICAiPiA8cmRmOlJERiB4bWxuczpyZGY9Imh0dHA6Ly93d3cudzMub3JnLzE5OTkvMDIvMjItcmRmLXN5bnRheC1ucyMiPiA8cmRmOkRlc2NyaXB0aW9uIHJkZjphYm91dD0iIiB4bWxuczp4bXA9Imh0dHA6Ly9ucy5hZG9iZS5jb20veGFwLzEuMC8iIHhtbG5zOnhtcE1NPSJodHRwOi8vbnMuYWRvYmUuY29tL3hhcC8xLjAvbW0vIiB4bWxuczpzdFJlZj0iaHR0cDovL25zLmFkb2JlLmNvbS94YXAvMS4wL3NUeXBlL1Jlc291cmNlUmVmIyIgeG1wOkNyZWF0b3JUb29sPSJBZG9iZSBQaG90b3Nob3AgQ1M1IE1hY2ludG9zaCIgeG1wTU06SW5zdGFuY2VJRD0ieG1wLmlpZDpCREM1NkJFMjE0NEMxMUU1ODk1Q0M5MjQ0MTA4QjNDMSIgeG1wTU06RG9jdW1lbnRJRD0ieG1wLmRpZDpCREM1NkJFMzE0NEMxMUU1ODk1Q0M5MjQ0MTA4QjNDMSI+IDx4bXBNTTpEZXJpdmVkRnJvbSBzdFJlZjppbnN0YW5jZUlEPSJ4bXAuaWlkOkQzOUMzMjZCMTQ0QjExRTU4OTVDQzkyNDQxMDhCM0MxIiBzdFJlZjpkb2N1bWVudElEPSJ4bXAuZGlkOkQzOUMzMjZDMTQ0QjExRTU4OTVDQzkyNDQxMDhCM0MxIi8+IDwvcmRmOkRlc2NyaXB0aW9uPiA8L3JkZjpSREY+IDwveDp4bXBtZXRhPiA8P3hwYWNrZXQgZW5kPSJyIj8+Af/+/fz7+vn49/b19PPy8fDv7u3s6+rp6Ofm5eTj4uHg397d3Nva2djX1tXU09LR0M/OzczLysnIx8bFxMPCwcC/vr28u7q5uLe2tbSzsrGwr66trKuqqainpqWko6KhoJ+enZybmpmYl5aVlJOSkZCPjo2Mi4qJiIeGhYSDgoGAf359fHt6eXh3dnV0c3JxcG9ubWxramloZ2ZlZGNiYWBfXl1cW1pZWFdWVVRTUlFQT05NTEtKSUhHRkVEQ0JBQD8+PTw7Ojk4NzY1NDMyMTAvLi0sKyopKCcmJSQjIiEgHx4dHBsaGRgXFhUUExIREA8ODQwLCgkIBwYFBAMCAQAAIfkEAQAAAQAsAAAAAA0ADQAAAhGMj6nL3QAjVHIu6azbvPtWAAA7&quot; valign=&quot;middle&quot; border=&quot;0&quot;&gt;&lt;/a&gt;&lt;div class=&quot;geSeparator&quot;&gt;&lt;/div&gt;&lt;a title=&quot;Undo (Ctrl+Z)&quot; class=&quot;geButton&quot;&gt;&lt;div class=&quot;geSprite geSprite-undo&quot;&gt;&lt;/div&gt;&lt;/a&gt;&lt;a title=&quot;Redo (Ctrl+Y)&quot; class=&quot;geButton&quot;&gt;&lt;div class=&quot;geSprite geSprite-redo&quot;&gt;&lt;/div&gt;&lt;/a&gt;&lt;div class=&quot;geSeparator&quot;&gt;&lt;/div&gt;&lt;a title=&quot;Bold (Ctrl+B)&quot; class=&quot;geButton&quot;&gt;&lt;div class=&quot;geSprite geSprite-bold&quot;&gt;&lt;/div&gt;&lt;/a&gt;&lt;a title=&quot;Italic (Ctrl+I)&quot; class=&quot;geButton&quot;&gt;&lt;div class=&quot;geSprite geSprite-italic&quot;&gt;&lt;/div&gt;&lt;/a&gt;&lt;a title=&quot;Underline (Ctrl+U)&quot; class=&quot;geButton&quot;&gt;&lt;div class=&quot;geSprite geSprite-underline&quot;&gt;&lt;/div&gt;&lt;/a&gt;&lt;a style=&quot;position: relative; white-space: nowrap; overflow: hidden; width: 30px;&quot; title=&quot;Align&quot; class=&quot;geButton&quot;&gt;&lt;div style=&quot;margin-left: -2px;&quot; class=&quot;geSprite geSprite-left&quot;&gt;&lt;/div&gt;&lt;img style=&quot;position: absolute; right: 4px; top: 5px; left: 22px;&quot; src=&quot;data:image/gif;base64,R0lGODlhDQANAIABAHt7e////yH/C1hNUCBEYXRhWE1QPD94cGFja2V0IGJlZ2luPSLvu78iIGlkPSJXNU0wTXBDZWhpSHpyZVN6TlRjemtjOWQiPz4gPHg6eG1wbWV0YSB4bWxuczp4PSJhZG9iZTpuczptZXRhLyIgeDp4bXB0az0iQWRvYmUgWE1QIENvcmUgNS4wLWMwNjAgNjEuMTM0Nzc3LCAyMDEwLzAyLzEyLTE3OjMyOjAwICAgICAgICAiPiA8cmRmOlJERiB4bWxuczpyZGY9Imh0dHA6Ly93d3cudzMub3JnLzE5OTkvMDIvMjItcmRmLXN5bnRheC1ucyMiPiA8cmRmOkRlc2NyaXB0aW9uIHJkZjphYm91dD0iIiB4bWxuczp4bXA9Imh0dHA6Ly9ucy5hZG9iZS5jb20veGFwLzEuMC8iIHhtbG5zOnhtcE1NPSJodHRwOi8vbnMuYWRvYmUuY29tL3hhcC8xLjAvbW0vIiB4bWxuczpzdFJlZj0iaHR0cDovL25zLmFkb2JlLmNvbS94YXAvMS4wL3NUeXBlL1Jlc291cmNlUmVmIyIgeG1wOkNyZWF0b3JUb29sPSJBZG9iZSBQaG90b3Nob3AgQ1M1IE1hY2ludG9zaCIgeG1wTU06SW5zdGFuY2VJRD0ieG1wLmlpZDpCREM1NkJFMjE0NEMxMUU1ODk1Q0M5MjQ0MTA4QjNDMSIgeG1wTU06RG9jdW1lbnRJRD0ieG1wLmRpZDpCREM1NkJFMzE0NEMxMUU1ODk1Q0M5MjQ0MTA4QjNDMSI+IDx4bXBNTTpEZXJpdmVkRnJvbSBzdFJlZjppbnN0YW5jZUlEPSJ4bXAuaWlkOkQzOUMzMjZCMTQ0QjExRTU4OTVDQzkyNDQxMDhCM0MxIiBzdFJlZjpkb2N1bWVudElEPSJ4bXAuZGlkOkQzOUMzMjZDMTQ0QjExRTU4OTVDQzkyNDQxMDhCM0MxIi8+IDwvcmRmOkRlc2NyaXB0aW9uPiA8L3JkZjpSREY+IDwveDp4bXBtZXRhPiA8P3hwYWNrZXQgZW5kPSJyIj8+Af/+/fz7+vn49/b19PPy8fDv7u3s6+rp6Ofm5eTj4uHg397d3Nva2djX1tXU09LR0M/OzczLysnIx8bFxMPCwcC/vr28u7q5uLe2tbSzsrGwr66trKuqqainpqWko6KhoJ+enZybmpmYl5aVlJOSkZCPjo2Mi4qJiIeGhYSDgoGAf359fHt6eXh3dnV0c3JxcG9ubWxramloZ2ZlZGNiYWBfXl1cW1pZWFdWVVRTUlFQT05NTEtKSUhHRkVEQ0JBQD8+PTw7Ojk4NzY1NDMyMTAvLi0sKyopKCcmJSQjIiEgHx4dHBsaGRgXFhUUExIREA8ODQwLCgkIBwYFBAMCAQAAIfkEAQAAAQAsAAAAAA0ADQAAAhGMj6nL3QAjVHIu6azbvPtWAAA7&quot; valign=&quot;middle&quot; border=&quot;0&quot;&gt;&lt;/a&gt;&lt;a style=&quot;position: relative; white-space: nowrap; overflow: hidden; width: 30px;&quot; title=&quot;Format&quot; class=&quot;geButton&quot;&gt;&lt;div style=&quot;margin-left: -2px;&quot; class=&quot;geSprite geSprite-dots&quot;&gt;&lt;/div&gt;&lt;img style=&quot;position: absolute; right: 4px; top: 5px; left: 22px;&quot; src=&quot;data:image/gif;base64,R0lGODlhDQANAIABAHt7e////yH/C1hNUCBEYXRhWE1QPD94cGFja2V0IGJlZ2luPSLvu78iIGlkPSJXNU0wTXBDZWhpSHpyZVN6TlRjemtjOWQiPz4gPHg6eG1wbWV0YSB4bWxuczp4PSJhZG9iZTpuczptZXRhLyIgeDp4bXB0az0iQWRvYmUgWE1QIENvcmUgNS4wLWMwNjAgNjEuMTM0Nzc3LCAyMDEwLzAyLzEyLTE3OjMyOjAwICAgICAgICAiPiA8cmRmOlJERiB4bWxuczpyZGY9Imh0dHA6Ly93d3cudzMub3JnLzE5OTkvMDIvMjItcmRmLXN5bnRheC1ucyMiPiA8cmRmOkRlc2NyaXB0aW9uIHJkZjphYm91dD0iIiB4bWxuczp4bXA9Imh0dHA6Ly9ucy5hZG9iZS5jb20veGFwLzEuMC8iIHhtbG5zOnhtcE1NPSJodHRwOi8vbnMuYWRvYmUuY29tL3hhcC8xLjAvbW0vIiB4bWxuczpzdFJlZj0iaHR0cDovL25zLmFkb2JlLmNvbS94YXAvMS4wL3NUeXBlL1Jlc291cmNlUmVmIyIgeG1wOkNyZWF0b3JUb29sPSJBZG9iZSBQaG90b3Nob3AgQ1M1IE1hY2ludG9zaCIgeG1wTU06SW5zdGFuY2VJRD0ieG1wLmlpZDpCREM1NkJFMjE0NEMxMUU1ODk1Q0M5MjQ0MTA4QjNDMSIgeG1wTU06RG9jdW1lbnRJRD0ieG1wLmRpZDpCREM1NkJFMzE0NEMxMUU1ODk1Q0M5MjQ0MTA4QjNDMSI+IDx4bXBNTTpEZXJpdmVkRnJvbSBzdFJlZjppbnN0YW5jZUlEPSJ4bXAuaWlkOkQzOUMzMjZCMTQ0QjExRTU4OTVDQzkyNDQxMDhCM0MxIiBzdFJlZjpkb2N1bWVudElEPSJ4bXAuZGlkOkQzOUMzMjZDMTQ0QjExRTU4OTVDQzkyNDQxMDhCM0MxIi8+IDwvcmRmOkRlc2NyaXB0aW9uPiA8L3JkZjpSREY+IDwveDp4bXBtZXRhPiA8P3hwYWNrZXQgZW5kPSJyIj8+Af/+/fz7+vn49/b19PPy8fDv7u3s6+rp6Ofm5eTj4uHg397d3Nva2djX1tXU09LR0M/OzczLysnIx8bFxMPCwcC/vr28u7q5uLe2tbSzsrGwr66trKuqqainpqWko6KhoJ+enZybmpmYl5aVlJOSkZCPjo2Mi4qJiIeGhYSDgoGAf359fHt6eXh3dnV0c3JxcG9ubWxramloZ2ZlZGNiYWBfXl1cW1pZWFdWVVRTUlFQT05NTEtKSUhHRkVEQ0JBQD8+PTw7Ojk4NzY1NDMyMTAvLi0sKyopKCcmJSQjIiEgHx4dHBsaGRgXFhUUExIREA8ODQwLCgkIBwYFBAMCAQAAIfkEAQAAAQAsAAAAAA0ADQAAAhGMj6nL3QAjVHIu6azbvPtWAAA7&quot; valign=&quot;middle&quot; border=&quot;0&quot;&gt;&lt;/a&gt;&lt;div class=&quot;geSeparator&quot;&gt;&lt;/div&gt;&lt;a title=&quot;HTML&quot; class=&quot;geButton&quot;&gt;&lt;div class=&quot;geSprite geIcon geSprite geSprite-code&quot;&gt;&lt;/div&gt;&lt;/a&gt;&lt;div class=&quot;geSeparator&quot;&gt;&lt;/div&gt;&lt;a style=&quot;white-space: nowrap; overflow: hidden; position: relative; width: 30px;&quot; title=&quot;Insert&quot; class=&quot;geLabel&quot;&gt;&lt;div style=&quot;margin-left: -4px; margin-top: -3px;&quot; class=&quot;geSprite geSprite-plus&quot;&gt;&lt;/div&gt;&lt;img style=&quot;position: absolute; right: 4px; top: 5px; left: 24px;&quot; src=&quot;data:image/gif;base64,R0lGODlhDQANAIABAHt7e////yH/C1hNUCBEYXRhWE1QPD94cGFja2V0IGJlZ2luPSLvu78iIGlkPSJXNU0wTXBDZWhpSHpyZVN6TlRjemtjOWQiPz4gPHg6eG1wbWV0YSB4bWxuczp4PSJhZG9iZTpuczptZXRhLyIgeDp4bXB0az0iQWRvYmUgWE1QIENvcmUgNS4wLWMwNjAgNjEuMTM0Nzc3LCAyMDEwLzAyLzEyLTE3OjMyOjAwICAgICAgICAiPiA8cmRmOlJERiB4bWxuczpyZGY9Imh0dHA6Ly93d3cudzMub3JnLzE5OTkvMDIvMjItcmRmLXN5bnRheC1ucyMiPiA8cmRmOkRlc2NyaXB0aW9uIHJkZjphYm91dD0iIiB4bWxuczp4bXA9Imh0dHA6Ly9ucy5hZG9iZS5jb20veGFwLzEuMC8iIHhtbG5zOnhtcE1NPSJodHRwOi8vbnMuYWRvYmUuY29tL3hhcC8xLjAvbW0vIiB4bWxuczpzdFJlZj0iaHR0cDovL25zLmFkb2JlLmNvbS94YXAvMS4wL3NUeXBlL1Jlc291cmNlUmVmIyIgeG1wOkNyZWF0b3JUb29sPSJBZG9iZSBQaG90b3Nob3AgQ1M1IE1hY2ludG9zaCIgeG1wTU06SW5zdGFuY2VJRD0ieG1wLmlpZDpCREM1NkJFMjE0NEMxMUU1ODk1Q0M5MjQ0MTA4QjNDMSIgeG1wTU06RG9jdW1lbnRJRD0ieG1wLmRpZDpCREM1NkJFMzE0NEMxMUU1ODk1Q0M5MjQ0MTA4QjNDMSI+IDx4bXBNTTpEZXJpdmVkRnJvbSBzdFJlZjppbnN0YW5jZUlEPSJ4bXAuaWlkOkQzOUMzMjZCMTQ0QjExRTU4OTVDQzkyNDQxMDhCM0MxIiBzdFJlZjpkb2N1bWVudElEPSJ4bXAuZGlkOkQzOUMzMjZDMTQ0QjExRTU4OTVDQzkyNDQxMDhCM0MxIi8+IDwvcmRmOkRlc2NyaXB0aW9uPiA8L3JkZjpSREY+IDwveDp4bXBtZXRhPiA8P3hwYWNrZXQgZW5kPSJyIj8+Af/+/fz7+vn49/b19PPy8fDv7u3s6+rp6Ofm5eTj4uHg397d3Nva2djX1tXU09LR0M/OzczLysnIx8bFxMPCwcC/vr28u7q5uLe2tbSzsrGwr66trKuqqainpqWko6KhoJ+enZybmpmYl5aVlJOSkZCPjo2Mi4qJiIeGhYSDgoGAf359fHt6eXh3dnV0c3JxcG9ubWxramloZ2ZlZGNiYWBfXl1cW1pZWFdWVVRTUlFQT05NTEtKSUhHRkVEQ0JBQD8+PTw7Ojk4NzY1NDMyMTAvLi0sKyopKCcmJSQjIiEgHx4dHBsaGRgXFhUUExIREA8ODQwLCgkIBwYFBAMCAQAAIfkEAQAAAQAsAAAAAA0ADQAAAhGMj6nL3QAjVHIu6azbvPtWAAA7&quot; valign=&quot;middle&quot; border=&quot;0&quot;&gt;&lt;/a&gt;&lt;div class=&quot;geSeparator&quot;&gt;&lt;/div&gt;&lt;a style=&quot;position: relative; white-space: nowrap; overflow: hidden; width: 30px;&quot; title=&quot;Table&quot; class=&quot;geButton&quot;&gt;&lt;div style=&quot;margin-left: -2px;&quot; class=&quot;geSprite geSprite-table&quot;&gt;&lt;/div&gt;&lt;img style=&quot;position: absolute; right: 4px; top: 5px; left: 22px;&quot; src=&quot;data:image/gif;base64,R0lGODlhDQANAIABAHt7e////yH/C1hNUCBEYXRhWE1QPD94cGFja2V0IGJlZ2luPSLvu78iIGlkPSJXNU0wTXBDZWhpSHpyZVN6TlRjemtjOWQiPz4gPHg6eG1wbWV0YSB4bWxuczp4PSJhZG9iZTpuczptZXRhLyIgeDp4bXB0az0iQWRvYmUgWE1QIENvcmUgNS4wLWMwNjAgNjEuMTM0Nzc3LCAyMDEwLzAyLzEyLTE3OjMyOjAwICAgICAgICAiPiA8cmRmOlJERiB4bWxuczpyZGY9Imh0dHA6Ly93d3cudzMub3JnLzE5OTkvMDIvMjItcmRmLXN5bnRheC1ucyMiPiA8cmRmOkRlc2NyaXB0aW9uIHJkZjphYm91dD0iIiB4bWxuczp4bXA9Imh0dHA6Ly9ucy5hZG9iZS5jb20veGFwLzEuMC8iIHhtbG5zOnhtcE1NPSJodHRwOi8vbnMuYWRvYmUuY29tL3hhcC8xLjAvbW0vIiB4bWxuczpzdFJlZj0iaHR0cDovL25zLmFkb2JlLmNvbS94YXAvMS4wL3NUeXBlL1Jlc291cmNlUmVmIyIgeG1wOkNyZWF0b3JUb29sPSJBZG9iZSBQaG90b3Nob3AgQ1M1IE1hY2ludG9zaCIgeG1wTU06SW5zdGFuY2VJRD0ieG1wLmlpZDpCREM1NkJFMjE0NEMxMUU1ODk1Q0M5MjQ0MTA4QjNDMSIgeG1wTU06RG9jdW1lbnRJRD0ieG1wLmRpZDpCREM1NkJFMzE0NEMxMUU1ODk1Q0M5MjQ0MTA4QjNDMSI+IDx4bXBNTTpEZXJpdmVkRnJvbSBzdFJlZjppbnN0YW5jZUlEPSJ4bXAuaWlkOkQzOUMzMjZCMTQ0QjExRTU4OTVDQzkyNDQxMDhCM0MxIiBzdFJlZjpkb2N1bWVudElEPSJ4bXAuZGlkOkQzOUMzMjZDMTQ0QjExRTU4OTVDQzkyNDQxMDhCM0MxIi8+IDwvcmRmOkRlc2NyaXB0aW9uPiA8L3JkZjpSREY+IDwveDp4bXBtZXRhPiA8P3hwYWNrZXQgZW5kPSJyIj8+Af/+/fz7+vn49/b19PPy8fDv7u3s6+rp6Ofm5eTj4uHg397d3Nva2djX1tXU09LR0M/OzczLysnIx8bFxMPCwcC/vr28u7q5uLe2tbSzsrGwr66trKuqqainpqWko6KhoJ+enZybmpmYl5aVlJOSkZCPjo2Mi4qJiIeGhYSDgoGAf359fHt6eXh3dnV0c3JxcG9ubWxramloZ2ZlZGNiYWBfXl1cW1pZWFdWVVRTUlFQT05NTEtKSUhHRkVEQ0JBQD8+PTw7Ojk4NzY1NDMyMTAvLi0sKyopKCcmJSQjIiEgHx4dHBsaGRgXFhUUExIREA8ODQwLCgkIBwYFBAMCAQAAIfkEAQAAAQAsAAAAAA0ADQAAAhGMj6nL3QAjVHIu6azbvPtWAAA7&quot; valign=&quot;middle&quot; border=&quot;0&quot;&gt;&lt;/a&gt;&lt;/div&gt;&lt;a style=&quot;position: absolute; display: inline-block; top: 6px; right: 10px; padding: 2px; font-size: 14px; width: 16px; height: 16px; background-position: 50% 50%; background-size: 16px 16px; background-repeat: no-repeat; background-image: url(&amp;quot;data:image/png;base64,iVBORw0KGgoAAAANSUhEUgAAABAAAAAQCAMAAAAoLQ9TAAAAGXRFWHRTb2Z0d2FyZQBBZG9iZSBJbWFnZVJlYWR5ccllPAAAAyJpVFh0WE1MOmNvbS5hZG9iZS54bXAAAAAAADw/eHBhY2tldCBiZWdpbj0i77u/IiBpZD0iVzVNME1wQ2VoaUh6cmVTek5UY3prYzlkIj8+IDx4OnhtcG1ldGEgeG1sbnM6eD0iYWRvYmU6bnM6bWV0YS8iIHg6eG1wdGs9IkFkb2JlIFhNUCBDb3JlIDUuMC1jMDYwIDYxLjEzNDc3NywgMjAxMC8wMi8xMi0xNzozMjowMCAgICAgICAgIj4gPHJkZjpSREYgeG1sbnM6cmRmPSJodHRwOi8vd3d3LnczLm9yZy8xOTk5LzAyLzIyLXJkZi1zeW50YXgtbnMjIj4gPHJkZjpEZXNjcmlwdGlvbiByZGY6YWJvdXQ9IiIgeG1sbnM6eG1wPSJodHRwOi8vbnMuYWRvYmUuY29tL3hhcC8xLjAvIiB4bWxuczp4bXBNTT0iaHR0cDovL25zLmFkb2JlLmNvbS94YXAvMS4wL21tLyIgeG1sbnM6c3RSZWY9Imh0dHA6Ly9ucy5hZG9iZS5jb20veGFwLzEuMC9zVHlwZS9SZXNvdXJjZVJlZiMiIHhtcDpDcmVhdG9yVG9vbD0iQWRvYmUgUGhvdG9zaG9wIENTNSBNYWNpbnRvc2giIHhtcE1NOkluc3RhbmNlSUQ9InhtcC5paWQ6ODdCREY5REY1NkQ3MTFFNTkyNjNEMTA5NjgwODUyRTgiIHhtcE1NOkRvY3VtZW50SUQ9InhtcC5kaWQ6ODdCREY5RTA1NkQ3MTFFNTkyNjNEMTA5NjgwODUyRTgiPiA8eG1wTU06RGVyaXZlZEZyb20gc3RSZWY6aW5zdGFuY2VJRD0ieG1wLmlpZDo4N0JERjlERDU2RDcxMUU1OTI2M0QxMDk2ODA4NTJFOCIgc3RSZWY6ZG9jdW1lbnRJRD0ieG1wLmRpZDo4N0JERjlERTU2RDcxMUU1OTI2M0QxMDk2ODA4NTJFOCIvPiA8L3JkZjpEZXNjcmlwdGlvbj4gPC9yZGY6UkRGPiA8L3g6eG1wbWV0YT4gPD94cGFja2V0IGVuZD0iciI/PlnMQ/8AAAAJUExURQAAAP///3FxcTfTiAsAAAACdFJOU/8A5bcwSgAAACFJREFUeNpiYEQDDEQJMMABTAAixcQ00ALoDiPRcwABBgB6DADly9Yx8wAAAABJRU5ErkJggg==&amp;quot;);&quot; class=&quot;geButton geAdaptiveAsset&quot; title=&quot;Format (Ctrl+Shift+P)&quot;&gt;&lt;/a&gt;&lt;a style=&quot;position: absolute; display: inline-block; top: 6px; right: 30px; padding: 2px; font-size: 14px; width: 16px; height: 16px; background-position: 50% 50%; background-size: 16px 16px; background-repeat: no-repeat; background-image: url(&amp;quot;data:image/svg+xml;base64,PHN2ZyB4bWxucz0iaHR0cDovL3d3dy53My5vcmcvMjAwMC9zdmciIHdpZHRoPSIyNCIgaGVpZ2h0PSIyNCIgdmlld0JveD0iMCAwIDI0IDI0Ij48cGF0aCBkPSJNMyA1djRoMlY1aDRWM0g1Yy0xLjEgMC0yIC45LTIgMnptMiAxMEgzdjRjMCAxLjEuOSAyIDIgMmg0di0ySDV2LTR6bTE0IDRoLTR2Mmg0YzEuMSAwIDItLjkgMi0ydi00aC0ydjR6bTAtMTZoLTR2Mmg0djRoMlY1YzAtMS4xLS45LTItMi0yeiIvPjwvc3ZnPg==&amp;quot;);&quot; class=&quot;geButton geAdaptiveAsset&quot; title=&quot;Fullscreen&quot;&gt;&lt;/a&gt;&lt;/div&gt;&lt;div style=&quot;width: 12px; z-index: 1; touch-action: none; top: 69px; left: 212px; bottom: 37px;&quot; class=&quot;geHsplit&quot;&gt;&lt;/div&gt;" style="rounded=0;whiteSpace=wrap;html=1;align=left;" parent="1" vertex="1">
                    <mxGeometry x="-390" y="1550" width="380" height="140" as="geometry"/>
                </mxCell>
                <mxCell id="73" value="menu?" style="rounded=0;whiteSpace=wrap;html=1;align=left;verticalAlign=top;container=1;dropTarget=1;collapsible=0;recursiveResize=0;" parent="1" vertex="1">
                    <mxGeometry x="-530" y="545" width="270" height="510" as="geometry"/>
                </mxCell>
                <mxCell id="74" value="" style="rounded=0;whiteSpace=wrap;html=1;recursiveResize=0;dropTarget=1;container=1;collapsible=0;" parent="73" vertex="1">
                    <mxGeometry y="350" width="270" height="160" as="geometry"/>
                </mxCell>
                <mxCell id="75" value="arrows to navigate" style="rounded=0;whiteSpace=wrap;html=1;" parent="74" vertex="1">
                    <mxGeometry x="10" y="20" width="120" height="60" as="geometry"/>
                </mxCell>
                <mxCell id="77" value="Change projection (spinner?)" style="rounded=0;whiteSpace=wrap;html=1;" parent="73" vertex="1">
                    <mxGeometry x="10" y="35" width="120" height="60" as="geometry"/>
                </mxCell>
                <mxCell id="78" value="scale text?" style="rounded=0;whiteSpace=wrap;html=1;" parent="73" vertex="1">
                    <mxGeometry x="10" y="105" width="120" height="60" as="geometry"/>
                </mxCell>
                <mxCell id="79" value="calculate auto-center" style="rounded=0;whiteSpace=wrap;html=1;verticalAlign=top;container=1;dropTarget=1;collapsible=0;recursiveResize=0;" parent="1" vertex="1">
                    <mxGeometry x="580" y="1345" width="290" height="225" as="geometry"/>
                </mxCell>
                <mxCell id="81" value="Loop through lines" style="rounded=0;whiteSpace=wrap;html=1;" parent="79" vertex="1">
                    <mxGeometry x="10" y="45" width="120" height="60" as="geometry"/>
                </mxCell>
                <mxCell id="85" style="edgeStyle=orthogonalEdgeStyle;html=1;exitX=0.5;exitY=1;exitDx=0;exitDy=0;entryX=0.5;entryY=0;entryDx=0;entryDy=0;" parent="79" source="82" target="84" edge="1">
                    <mxGeometry relative="1" as="geometry"/>
                </mxCell>
                <mxCell id="82" value="calculate bounding box" style="rounded=0;whiteSpace=wrap;html=1;" parent="79" vertex="1">
                    <mxGeometry x="160" y="45" width="120" height="60" as="geometry"/>
                </mxCell>
                <mxCell id="83" style="edgeStyle=orthogonalEdgeStyle;html=1;exitX=1;exitY=0.5;exitDx=0;exitDy=0;entryX=0;entryY=0.5;entryDx=0;entryDy=0;" parent="79" source="81" target="82" edge="1">
                    <mxGeometry relative="1" as="geometry"/>
                </mxCell>
                <mxCell id="87" style="edgeStyle=orthogonalEdgeStyle;html=1;exitX=0;exitY=0.5;exitDx=0;exitDy=0;entryX=1;entryY=0.5;entryDx=0;entryDy=0;" parent="79" source="84" target="86" edge="1">
                    <mxGeometry relative="1" as="geometry"/>
                </mxCell>
                <mxCell id="84" value="calculate translation to center" style="rounded=0;whiteSpace=wrap;html=1;" parent="79" vertex="1">
                    <mxGeometry x="160" y="125" width="120" height="60" as="geometry"/>
                </mxCell>
                <mxCell id="86" value="enable / disable auto-center" style="rounded=0;whiteSpace=wrap;html=1;" parent="79" vertex="1">
                    <mxGeometry x="10" y="125" width="120" height="60" as="geometry"/>
                </mxCell>
                <mxCell id="80" style="edgeStyle=orthogonalEdgeStyle;html=1;exitX=1;exitY=0.5;exitDx=0;exitDy=0;entryX=0;entryY=0.25;entryDx=0;entryDy=0;" parent="1" source="59" target="79" edge="1">
                    <mxGeometry relative="1" as="geometry"/>
                </mxCell>
                <mxCell id="88" value="To Do:&lt;br&gt;&lt;br&gt;cleanup -initialisaion phase&lt;br&gt;&lt;br&gt;allow translation frames to be enabled / disabled&lt;br&gt;&lt;br&gt;setup projection loop&lt;br&gt;&lt;br&gt;implement translation keys&lt;br&gt;&lt;br&gt;mouse rotation?&lt;br&gt;&lt;br&gt;auto-center" style="rounded=0;whiteSpace=wrap;html=1;" parent="1" vertex="1">
                    <mxGeometry x="450" y="180" width="330" height="350" as="geometry"/>
                </mxCell>
            </root>
        </mxGraphModel>
    </diagram>
</mxfile>